<?xml version="1.0" encoding="UTF-8"?>
<svg width="24px" height="24px" viewBox="0 0 24 24" version="1.1" xmlns="http://www.w3.org/2000/svg" xmlns:xlink="http://www.w3.org/1999/xlink">
    <title>镜像</title>
    <g id="镜像" stroke="none" stroke-width="1" fill="none" fill-rule="evenodd">
        <g id="编组-80">
            <g id="编组-2备份" fill="#1890FF" opacity="0.800000012">
                <path d="M4,0 L24,0 L24,0 L24,20 C24,22.209139 22.209139,24 20,24 L0,24 L0,24 L0,4 C-2.705415e-16,1.790861 1.790861,-1.37054459e-15 4,0 Z" id="矩形"></path>
            </g>
            <g id="编组-60" transform="translate(4.000000, 4.000000)">
                <rect id="矩形" x="0" y="0" width="16" height="16"></rect>
                <g id="编组-58" transform="translate(2.000000, 2.000000)">
                    <path d="M0.309518986,5.69896565 L1.38305934,5.69896565 C1.55175854,5.69896565 1.68978516,5.56093903 1.68978516,5.39223983 L1.68978516,4.31869948 C1.68978516,4.15000028 1.55175854,4.01197366 1.38305934,4.01197366 L0.309518986,4.01197366 C0.140819788,4.01197366 0.00279317118,4.15000028 0.00279317118,4.31869948 L0.00279317118,5.39223983 C0.00279317118,5.56093903 0.140819788,5.69896565 0.309518986,5.69896565 Z" id="路径" fill="#FFFFFF" fill-rule="nonzero"></path>
                    <path d="M2.34004388,5.69896565 L3.41358424,5.69896565 C3.58228344,5.69896565 3.72031005,5.56093903 3.72031005,5.39223983 L3.72031005,4.31869948 C3.72031005,4.15000028 3.58228344,4.01197366 3.41358424,4.01197366 L2.34004388,4.01197366 C2.17134469,4.01197366 2.03331807,4.15000028 2.03331807,4.31869948 L2.03331807,5.39223983 C2.03331807,5.56093903 2.16981106,5.69896565 2.34004388,5.69896565 Z M4.39203959,5.69896565 L5.46557994,5.69896565 C5.63427914,5.69896565 5.77230576,5.56093903 5.77230576,5.39223983 L5.77230576,4.31869948 C5.77230576,4.15000028 5.63427914,4.01197366 5.46557994,4.01197366 L4.39203959,4.01197366 C4.22334039,4.01197366 4.08531377,4.15000028 4.08531377,4.31869948 L4.08531377,5.39223983 C4.08531377,5.56093903 4.22334039,5.69896565 4.39203959,5.69896565 Z M2.34004388,3.69144519 L3.41358424,3.69144519 C3.58228344,3.69144519 3.72031005,3.55341857 3.72031005,3.38471937 L3.72031005,2.31117902 C3.72031005,2.14247982 3.58228344,2.0044532 3.41358424,2.0044532 L2.34004388,2.0044532 C2.17134469,2.0044532 2.03331807,2.14247982 2.03331807,2.31117902 L2.03331807,3.38471937 C2.03331807,3.55341857 2.16981106,3.69144519 2.34004388,3.69144519 Z M4.39203959,3.69144519 L5.46557994,3.69144519 C5.63427914,3.69144519 5.77230576,3.55341857 5.77230576,3.38471937 L5.77230576,2.31117902 C5.77230576,2.14247982 5.63427914,2.0044532 5.46557994,2.0044532 L4.39203959,2.0044532 C4.22334039,2.0044532 4.08531377,2.14247982 4.08531377,2.31117902 L4.08531377,3.38471937 C4.08531377,3.55341857 4.22334039,3.69144519 4.39203959,3.69144519 Z M4.39203959,1.68699198 L5.46557994,1.68699198 C5.63427914,1.68699198 5.77230576,1.54896537 5.77230576,1.38026617 L5.77230576,0.306725815 C5.77230576,0.138026617 5.63427914,0 5.46557994,0 L4.39203959,0 C4.22334039,0 4.08531377,0.138026617 4.08531377,0.306725815 L4.08531377,1.38026617 C4.08531377,1.54896537 4.22334039,1.68699198 4.39203959,1.68699198 Z M6.43636715,5.69896565 L7.5099075,5.69896565 C7.6786067,5.69896565 7.81663332,5.56093903 7.81663332,5.39223983 L7.81663332,4.31869948 C7.81663332,4.15000028 7.6786067,4.01197366 7.5099075,4.01197366 L6.43636715,4.01197366 C6.26766795,4.01197366 6.12964133,4.15000028 6.12964133,4.31869948 L6.12964133,5.39223983 C6.12964133,5.56093903 6.26613432,5.69896565 6.43636715,5.69896565 Z" id="形状" fill="#FFFFFF" fill-rule="nonzero"></path>
                    <path d="M0.00279317118,6.68077312 L8.0660838,6.68077312 C8.47578113,6.70076514 8.80239035,6.6253678 9.04591145,6.45458109 C8.59297094,5.81133879 8.71632132,4.89029349 9.41596257,3.69144519 C10.2457308,4.22749638 10.6606149,4.8597305 10.6606149,5.58814755 C11.091139,5.37646265 11.7376006,5.50611269 12.6,5.97709769 C11.9220598,6.98357474 11.1751412,7.43053354 10.3592442,7.31797409 C9.74106146,8.50431971 8.38015329,11.2468832 4.1951237,11.2468832 C1.32620902,11.2468832 -0.0712344891,9.72484653 0.00279317118,6.68077312 Z" id="路径-5" stroke="#FFFFFF" stroke-linejoin="round"></path>
                    <path d="M2.21546049,9.09724009 C2.53913926,9.09724009 2.80153276,8.8348466 2.80153276,8.51116782 C2.80153276,8.18748905 2.53913926,7.92509556 2.21546049,7.92509556 C1.89178172,7.92509556 1.62938822,8.18748905 1.62938822,8.51116782 C1.62938822,8.8348466 1.89178172,9.09724009 2.21546049,9.09724009 Z" id="椭圆形" fill="#FFFFFF"></path>
                </g>
            </g>
        </g>
    </g>
</svg>